<!-- Generator: Adobe Illustrator 24.1.0, SVG Export Plug-In  -->
<svg version="1.1" xmlns="http://www.w3.org/2000/svg" xmlns:xlink="http://www.w3.org/1999/xlink" x="0px" y="0px"
	 width="141.01px" height="167.98px" viewBox="0 0 141.01 167.98" style="enable-background:new 0 0 141.01 167.98;"
	 xml:space="preserve">
<style type="text/css">
	.california0{fill-rule:evenodd;clip-rule:evenodd;fill:#2B2B2B;}
	.california1{fill-rule:evenodd;clip-rule:evenodd;fill:#7C886A;}
</style>
<defs>
</defs>
<path id="cali_map_1_" class="california0" d="M101.88,167.98c-0.24,0-0.47-0.02-0.7-0.07c-1.4-0.25-2-0.45-2.36-1.4
	c-0.11-0.31-0.3-0.59-0.55-0.8c-1.4-1.36-2.36-3.11-2.75-5.02c-0.17-0.61-0.37-1.29-0.65-2.07c-0.71-2.11-1.71-4.12-2.97-5.95
	c-1.18-1.44-5.34-5.07-6.42-5.32c-0.47,0.07-0.92,0.22-1.33,0.45c-1.04,0.48-2.34,1.08-3.55,0.31c-1.42-0.9-1.21-2.43-1.07-3.43
	c0.14-0.47,0.12-0.96-0.05-1.42c-0.52-0.25-1.11-0.32-1.68-0.2c-0.63,0.07-1.28,0.03-1.9-0.1c-0.7-0.22-1.36-0.52-1.98-0.91
	c-0.52-0.33-1.07-0.58-1.65-0.77c-0.5-0.11-1.01-0.15-1.52-0.12c-1.18,0.14-2.37-0.26-3.23-1.08c-0.46-0.5-0.76-1.13-0.86-1.8
	c-0.05-0.51-0.28-0.99-0.64-1.36c-0.91-0.49-1.95-0.71-2.98-0.63c-1.82,0.17-3.63-0.49-4.91-1.8c-0.19,0.04-0.4,0.09-0.61,0.14
	c-2.41,0.53-5.43,1.21-7.6,0.33c-0.38-0.15-0.63-0.52-0.62-0.93c-0.02-2.52-0.2-5.03-0.53-7.52c-0.17-1.53-0.34-3.11-0.45-4.74
	c-2.21-0.09-2.83-0.99-3.17-2.63c-0.09-0.58-0.29-1.15-0.58-1.66c-0.64-0.85-1.53-1.47-2.54-1.79c-1.01-0.38-1.93-0.94-2.73-1.66
	c-0.55-0.61-0.91-1.37-1.03-2.18c-0.06-0.42-0.21-0.81-0.43-1.17c-0.38-0.48-0.85-0.9-1.38-1.21c-0.5-0.31-0.96-0.68-1.37-1.09
	c-1.85-2.04-3.42-4.31-4.67-6.76c-1.2-2.41-1.03-3.15-0.28-4.5c0.26-0.44,0.48-0.9,0.66-1.37c0.93-2.45,0.8-3.52-0.58-4.59
	c-0.54-0.4-1.16-0.67-1.82-0.81c-1.55-0.29-2.86-1.32-3.51-2.76c-0.68-1.43-1.05-2.99-1.1-4.57c-0.06-0.99-0.23-1.97-0.5-2.93
	c-0.17-0.52,0.11-1.08,0.63-1.26c0.24-0.08,0.51-0.06,0.74,0.05c0.3,0.14,0.7,0.37,1.16,0.63c0.9,0.58,1.87,1.02,2.9,1.31
	c0.23-0.1,0.41-0.29,0.5-0.52c0.17-0.61-0.61-1.8-1.17-2.67c-0.41-0.56-0.75-1.17-1-1.82c-0.2-0.82-0.28-1.67-0.26-2.51
	c-0.06-2.5-0.28-3.58-1.43-3.76c-0.16-0.04-0.33-0.02-0.48,0.06c-0.52,0.52-0.14,2.94,0.04,4.1c0.1,0.66,0.19,1.24,0.21,1.66
	c0.01,0.4-0.22,0.78-0.58,0.95c-0.37,0.17-0.8,0.1-1.1-0.18c-0.69-0.64-1.33-1.2-1.92-1.71c-2.21-1.93-3.97-3.45-5.26-6.98
	c-0.99-2.27-2.38-4.35-4.11-6.13c-1.9-2.22-3.88-4.52-4.59-7.63c-0.46-2.49-0.44-5.04,0.04-7.53c0.51-3.74,0.94-6.97-2.49-10.17
	c-0.82-0.76-1.54-1.32-2.18-1.82c-2.37-1.82-3.47-2.9-2.69-7.4c0.39-1.79,1-3.52,1.83-5.15c0.62-1.26,1.13-2.57,1.53-3.92
	c1.48-5.59,1.42-7.83,1.18-8.23C4.48,9.22,4.11,9.07,3.72,9c-1.3-0.17-2.4-1.06-2.82-2.31c-0.42-1.57,0.92-3.45,2-4.96
	C3.17,1.38,3.41,1,3.63,0.61C3.78,0.22,4.18-0.03,4.6,0l54.35,3c0.53,0.03,0.94,0.46,0.94,0.99v50.78l73.63,67.96
	c0.14,0.13,0.24,0.29,0.29,0.48c0.39,1.36,0.98,2.66,1.75,3.85c0.59,0.96,1.11,1.96,1.54,2.99c0.2,0.55,0.25,1.14,0.16,1.71
	c-0.09,0.31-0.05,0.65,0.11,0.93c-0.04-0.07,0.21-0.04,0.37-0.01c0.68,0.03,1.32,0.31,1.79,0.8l0.28,0.34
	c1.11,0.96,1.49,2.51,0.96,3.88c-0.41,0.8-1.03,1.47-1.81,1.93c-0.52,0.32-0.97,0.74-1.34,1.22c-0.48,1.06-0.74,2.22-0.74,3.39
	l-0.05,0.52c-0.14,2.84-1.11,5.57-2.78,7.87c0.5,1.19,0.6,2.51,0.29,3.76c-0.05,0.39-0.1,0.77-0.13,1.12
	c1.15-0.1,2.23,0.57,2.65,1.65c0.47,1.41-0.48,3.13-2.26,4.08s-4.54,1.09-6.97,1.22c-1.05,0.05-2.03,0.1-2.83,0.21
	c-1.67,0.27-3.33,0.62-4.97,1.06c-1.22,0.3-2.45,0.6-3.69,0.85c-1.82,0.28-3.67,0.37-5.51,0.26c-1.37-0.06-2.74-0.03-4.11,0.09
	c-0.61,0.09-1.2,0.24-1.78,0.45C103.82,167.72,102.86,167.92,101.88,167.98z M100.66,165.76c0.29,0.08,0.58,0.14,0.87,0.19
	c0.9,0.03,1.8-0.14,2.63-0.48c0.7-0.24,1.41-0.42,2.14-0.53c1.46-0.13,2.92-0.16,4.38-0.09c1.7,0.1,3.4,0.02,5.08-0.24
	c1.22-0.23,2.4-0.52,3.59-0.82c1.7-0.45,3.43-0.82,5.17-1.09c0.87-0.13,1.91-0.18,3.01-0.24c2.22-0.11,4.75-0.24,6.13-0.98
	c0.73-0.26,1.24-0.92,1.31-1.69c-0.06-0.18-0.54-0.39-1.57-0.23c-0.26,0.04-0.53-0.03-0.74-0.19c-0.22-0.15-0.36-0.39-0.4-0.65
	c-0.08-0.86-0.05-1.74,0.11-2.59c0.18-1.36,0.26-2.29-0.24-2.75c-0.37-0.35-0.42-0.91-0.12-1.32c1.71-2.13,2.71-4.76,2.84-7.49
	l0.04-0.5c0.02-1.47,0.37-2.91,1.01-4.23c0.5-0.73,1.14-1.35,1.89-1.82c0.43-0.27,0.81-0.61,1.12-1.01c0.29-0.8,0.07-1.11-0.6-1.88
	l-0.33-0.39c-0.04-0.01-0.35-0.06-0.54-0.09c-0.63-0.02-1.23-0.29-1.66-0.76c-0.47-0.67-0.65-1.5-0.5-2.3
	c0.05-0.26,0.04-0.53-0.02-0.79c-0.4-0.94-0.87-1.85-1.42-2.72c-0.37-0.64-0.76-1.29-1.12-2.06c-0.51-0.08-0.88-0.53-0.85-1.04
	c0.02-0.35,0.01-0.71,0-1.07L58.22,55.93c-0.2-0.19-0.32-0.45-0.32-0.73V4.94L5.11,2.03c-0.17,0.26-0.37,0.54-0.6,0.86
	c-0.6,0.85-1.86,2.63-1.69,3.29c0.13,0.48,0.52,0.64,1.44,0.9c0.89,0.15,1.69,0.63,2.23,1.36c0.28,0.46,1.13,1.87-0.95,9.76
	c-0.43,1.46-0.98,2.88-1.65,4.25c-0.76,1.48-1.32,3.04-1.68,4.66c-0.61,3.51-0.07,3.92,1.94,5.47c0.81,0.61,1.59,1.25,2.33,1.94
	c4.18,3.9,3.63,7.97,3.1,11.9c-0.44,2.25-0.46,4.55-0.07,6.81c0.6,2.63,2.33,4.65,4.16,6.77c1.89,1.96,3.4,4.25,4.47,6.76
	c1.11,3.01,2.51,4.25,4.64,6.1c-0.24-1.77-0.32-3.65,0.69-4.67c0.58-0.56,1.4-0.79,2.19-0.62c2.99,0.46,3.06,3.6,3.11,5.68
	c-0.02,0.66,0.05,1.32,0.18,1.96c0.21,0.47,0.46,0.91,0.76,1.33c0.82,1.25,1.83,2.81,1.43,4.28c-0.24,0.81-0.83,1.48-1.61,1.81
	c-0.96,0.48-2.24-0.03-3.88-0.94c0.04,0.39,0.08,0.77,0.12,1.14c0.03,1.32,0.33,2.63,0.88,3.83c0.4,0.95,1.27,1.62,2.29,1.77
	c0.9,0.2,1.75,0.6,2.49,1.15c2.62,2.02,2.14,4.5,1.23,6.88c-0.22,0.57-0.48,1.12-0.79,1.65c-0.45,0.8-0.52,0.92,0.33,2.61
	c1.15,2.27,2.61,4.38,4.32,6.27c0.32,0.31,0.67,0.59,1.05,0.82c0.71,0.44,1.34,1,1.86,1.66c0.4,0.58,0.66,1.23,0.78,1.92
	c0.05,0.45,0.22,0.88,0.5,1.23c0.63,0.54,1.34,0.96,2.12,1.25c1.4,0.47,2.61,1.37,3.45,2.58c0.4,0.71,0.68,1.48,0.82,2.28
	c0.2,0.98,0.23,1.13,2.11,1.04c0.27-0.02,0.53,0.07,0.72,0.26c0.2,0.17,0.32,0.42,0.33,0.69c0.09,1.9,0.29,3.77,0.49,5.57
	c0.3,2.32,0.47,4.66,0.53,7c1.64,0.32,4.02-0.21,5.81-0.61c0.44-0.1,0.85-0.19,1.23-0.27c0.38-0.07,0.76,0.08,1,0.38
	c1.06,1.45,2.19,1.47,3.76,1.51c1.4-0.08,2.79,0.24,4.01,0.93c0.81,0.62,1.35,1.54,1.49,2.55c0.06,0.29,0.15,0.57,0.29,0.84
	c0.49,0.47,1.18,0.67,1.85,0.54c0.69-0.04,1.38,0.03,2.05,0.19c0.75,0.23,1.46,0.55,2.13,0.96c0.48,0.31,0.99,0.55,1.53,0.73
	c0.42,0.06,0.84,0.07,1.26,0.03c1.08-0.07,2.43-0.14,3.31,0.91c0.6,0.87,0.78,1.95,0.5,2.97c-0.14,1.03-0.11,1.3,0.17,1.47
	c0.58,0.05,1.17-0.1,1.65-0.43c0.78-0.48,1.7-0.69,2.61-0.58c1.89,0.43,6.48,4.73,7.51,6c1.41,2.01,2.53,4.21,3.31,6.54
	c0.29,0.83,0.5,1.54,0.68,2.18c0.3,1.59,1.08,3.04,2.24,4.17C100.11,164.7,100.45,165.2,100.66,165.76z"/>
<path id="location_1_" class="california1" d="M35.51,28.41c-5.38-0.16-9.86,4.08-10.02,9.46c-0.01,0.19-0.01,0.37,0,0.56
	c0.12,2.38,0.76,4.7,1.85,6.82l8.17,15.23l8.17-15.23c1.09-2.12,1.73-4.44,1.85-6.82c0.16-5.38-4.08-9.86-9.46-10.02
	C35.88,28.4,35.69,28.4,35.51,28.41z M35.51,34.02c2.44,0,4.41,1.97,4.41,4.41c0,2.44-1.97,4.41-4.41,4.41
	c-2.44,0-4.41-1.97-4.41-4.41c-0.01-2.43,1.96-4.4,4.39-4.41C35.49,34.02,35.5,34.02,35.51,34.02z"/>
</svg>
