<svg id="Layer_1" data-name="Layer 1" xmlns="http://www.w3.org/2000/svg" viewBox="0 0 200 200"><defs><style>.cls-1{fill:#fff;}</style></defs><polygon class="cls-1" points="183 63.8 173.48 53.86 143.67 83.25 143.67 103.12 173.48 132.51 183 122.58 153.61 93.19 183 63.8"/><path class="cls-1" d="M104.35,122.58l29.39-29.39-29.39-29.4,9.93-9.93,29.39,29.39V9.56c0-3.31-3.72-5.38-6.21-3.31L71.64,51a3.12,3.12,0,0,1-2.07.83h-48a3.92,3.92,0,0,0-4.14,4.14v74.51a3.91,3.91,0,0,0,4.14,4.14h48a6,6,0,0,1,2.49.83l65.4,44.71a4.14,4.14,0,0,0,6.63-3.31V103.12l-29.4,29.39Z"/></svg>